<svg width="24" height="24" viewBox="0 0 24 24" fill="none" xmlns="http://www.w3.org/2000/svg">
<path fill-rule="evenodd" clip-rule="evenodd" d="M15.7636 0.830026C15.664 0.639578 15.523 0.471545 15.3502 0.337096C15.1773 0.202647 14.9764 0.10486 14.7609 0.050234C14.5453 -0.00439167 14.3201 -0.0146049 14.1001 0.0202727C13.8801 0.0551504 13.6705 0.13432 13.485 0.252521C12.9429 0.597524 12.5201 1.08953 12.1933 1.57253C11.857 2.06754 11.56 2.64204 11.2976 3.24655C10.7727 4.45256 10.3327 5.89858 9.97758 7.34759C9.54808 9.11834 9.22645 10.9114 9.01429 12.7176C8.37493 12.3242 7.8612 11.7705 7.52929 11.1171C7.01386 10.0971 6.90386 8.81611 6.90386 7.13609C6.9038 6.83946 6.8116 6.54951 6.63892 6.30289C6.46625 6.05628 6.22085 5.86406 5.93375 5.75056C5.64665 5.63705 5.33074 5.60735 5.02596 5.6652C4.72117 5.72305 4.4412 5.86586 4.22144 6.07558C3.19869 7.04974 2.38762 8.20716 1.83479 9.48137C1.28197 10.7556 0.998274 12.1215 1.00001 13.5007C1.00014 15.2273 1.44637 16.9274 2.29917 18.4501C3.15197 19.9729 4.38502 21.2714 5.88911 22.2307C7.3932 23.1899 9.1219 23.7803 10.9221 23.9495C12.7223 24.1187 14.5384 23.8615 16.2096 23.2007C17.8808 22.5399 19.3555 21.4959 20.5031 20.1611C21.6506 18.8264 22.4357 17.2421 22.7886 15.5486C23.1415 13.8551 23.0515 12.1046 22.5265 10.4522C22.0014 8.79987 21.0576 7.2966 19.7786 6.07558C18.8483 5.18907 18.2386 4.59806 17.6603 3.87506C17.0899 3.16105 16.5226 2.28054 15.7636 0.830026V0.830026ZM15.3314 19.6807C14.6721 20.3093 13.8325 20.7372 12.9186 20.9105C12.0046 21.0838 11.0574 20.9947 10.1965 20.6544C9.33557 20.3142 8.59961 19.738 8.08154 18.9987C7.56347 18.2594 7.28654 17.3901 7.28572 16.5007C7.28572 16.5007 8.66701 17.2507 11.2143 17.2507C11.2143 15.7507 12 11.2506 13.1786 10.5006C13.9643 12.0006 14.4137 12.4401 15.333 13.3191C15.7715 13.7364 16.1193 14.2323 16.3563 14.7783C16.5934 15.3243 16.715 15.9097 16.7143 16.5007C16.715 17.0917 16.5934 17.677 16.3563 18.223C16.1193 18.769 15.7715 19.2649 15.333 19.6822L15.3314 19.6807Z" fill="#F76659"/>
</svg>
